HIERARCHY
ROOT Hips
{
 OFFSET 0.000000 0.000000 0.000000
 CHANNELS 6 Xposition Yposition Zposition Yrotation Xrotation Zrotation
 JOINT Chest
 {
  OFFSET 0.000000 9.585900 0.002600
  CHANNELS 3 Yrotation Xrotation Zrotation
  JOINT Chest2
  {
   OFFSET 0.000000 9.601200 -0.005300
   CHANNELS 3 Yrotation Xrotation Zrotation
   JOINT Chest3
   {
    OFFSET 0.000000 9.561800 0.000000
    CHANNELS 3 Yrotation Xrotation Zrotation
    JOINT Chest4
    {
     OFFSET 0.000000 9.552100 0.000000
     CHANNELS 3 Yrotation Xrotation Zrotation
     JOINT Neck
     {
      OFFSET 0.000000 14.453000 0.000000
      CHANNELS 3 Yrotation Xrotation Zrotation
      JOINT Head
      {
       OFFSET 0.000000 8.936500 -0.011300
       CHANNELS 3 Yrotation Xrotation Zrotation
       End Site
       {
        OFFSET 0.000000 17.073600 -0.006000
       }
      }
     }
     JOINT RightCollar
     {
      OFFSET -2.921100 9.558500 0.000000
      CHANNELS 3 Yrotation Xrotation Zrotation
      JOINT RightShoulder
      {
       OFFSET -13.519700 0.000000 0.000000
       CHANNELS 3 Yrotation Xrotation Zrotation
       JOINT RightElbow
       {
        OFFSET 0.000000 -29.696600 0.000000
        CHANNELS 3 Yrotation Xrotation Zrotation
        JOINT RightWrist
        {
         OFFSET 0.000000 -24.004700 0.000000
         CHANNELS 3 Yrotation Xrotation Zrotation
         End Site
         {
          OFFSET 0.000000 -17.728500 0.000000
         }
        }
       }
      }
     }
     JOINT LeftCollar
     {
      OFFSET 2.921100 9.558500 0.000000
      CHANNELS 3 Yrotation Xrotation Zrotation
      JOINT LeftShoulder
      {
       OFFSET 13.519700 0.000000 0.000000
       CHANNELS 3 Yrotation Xrotation Zrotation
       JOINT LeftElbow
       {
        OFFSET 0.000000 -29.696600 0.000000
        CHANNELS 3 Yrotation Xrotation Zrotation
        JOINT LeftWrist
        {
         OFFSET 0.000000 -24.004700 0.000000
         CHANNELS 3 Yrotation Xrotation Zrotation
         End Site
         {
          OFFSET 0.000000 -17.728500 0.000000
         }
        }
       }
      }
     }
    }
   }
  }
 }
 JOINT RightHip
 {
  OFFSET -7.771700 -0.012900 -0.001300
  CHANNELS 3 Yrotation Xrotation Zrotation
  JOINT RightKnee
  {
   OFFSET 0.000000 -40.869800 0.001200
   CHANNELS 3 Yrotation Xrotation Zrotation
   JOINT RightAnkle
   {
    OFFSET 0.000000 -39.717900 0.002100
    CHANNELS 3 Yrotation Xrotation Zrotation
    JOINT RightToe
    {
     OFFSET 0.000000 -4.965400 11.033500
     CHANNELS 3 Yrotation Xrotation Zrotation
     End Site
     {
      OFFSET 0.000000 -1.423100 5.872300
     }
    }
   }
  }
 }
 JOINT LeftHip
 {
  OFFSET 7.771700 -0.012900 -0.001300
  CHANNELS 3 Yrotation Xrotation Zrotation
  JOINT LeftKnee
  {
   OFFSET 0.000000 -40.869800 0.001200
   CHANNELS 3 Yrotation Xrotation Zrotation
   JOINT LeftAnkle
   {
    OFFSET 0.000000 -39.717900 0.002100
    CHANNELS 3 Yrotation Xrotation Zrotation
    JOINT LeftToe
    {
     OFFSET 0.000000 -4.965400 11.033500
     CHANNELS 3 Yrotation Xrotation Zrotation
     End Site
     {
      OFFSET 0.000000 -1.423100 5.872300
     }
    }
   }
  }
 }
}
MOTION
Frames: 9
Frame Time: 0.008333
0.000000 85.388000 0.000000 0.000000 -5.767877 0.000000 0.000000 11.653817 0.000000 0.000000 -5.885947 0.000000 0.000000 -0.000000 0.000000 0.000000 -0.000000 0.000000 0.000000 12.528835 0.000000 0.000000 0.711642 0.000000 0.000000 -0.000000 0.000000 0.000000 0.000000 -90.000000 0.000000 -2.309062 0.000000 0.000000 2.309062 0.000000 0.000000 -0.000000 0.000000 0.000000 -0.000000 90.000000 0.000000 -2.309062 0.000000 0.000000 2.309062 0.000000 0.000000 8.520406 0.000000 0.000000 1.905762 0.000000 -0.000000 -4.658285 0.000000 0.000000 -0.000000 0.000000 0.000000 8.520406 0.000000 0.000000 1.905762 0.000000 -0.000000 -4.658285 0.000000 0.000000 -0.000000 0.000000
-6.795715 52.415156 29.480866 172.971922 -37.693053 -2.023661 2.133656 21.401224 1.279047 0.197757 2.875020 0.315551 0.342081 4.667179 0.524949 1.573005 18.182003 2.239525 -1.256719 15.224709 -0.072153 -2.285748 -7.574000 0.332729 -5.191275 -0.419382 -3.714133 -7.411336 -3.709251 3.380368 -113.285231 -70.523061 142.246028 10.209060 8.859792 28.134351 -5.275558 0.713320 0.014039 15.969729 -6.128101 2.973346 81.036045 -40.449439 -131.444437 4.167406 -2.102695 -21.517939 -3.351455 -43.751989 2.453032 -130.030163 84.961386 -124.854879 1.243951 -9.945814 -2.788140 0.509850 -1.172746 0.218267 -3.070098 -39.693369 5.705649 73.153619 82.475427 62.100037 -6.491422 -12.451138 8.458207 0.680086 1.563361 0.312773
-6.796561 52.412942 29.482413 172.961923 -37.703918 -2.024413 2.130632 21.428349 1.275988 0.207978 2.862092 0.319444 0.317199 4.713646 0.513803 1.584566 18.163219 2.237659 -1.313252 15.207965 -0.058091 -2.405154 -7.618759 0.379010 -5.213025 -0.396432 -3.677978 -7.215710 -3.833375 3.519583 -113.236466 -70.644008 142.081171 9.736928 8.443379 26.812344 -5.266401 0.765395 0.010821 15.937241 -6.183712 2.815803 80.103931 -39.562793 -130.782892 4.776159 -2.527879 -21.111907 -3.353891 -43.741506 2.461857 -130.015279 84.965831 -124.841068 1.243802 -9.945883 -2.792096 0.514455 -1.168931 0.222011 -3.069557 -39.686528 5.710473 73.160313 82.485579 62.112881 -6.491943 -12.453504 8.465972 0.669065 1.565567 0.300217
-6.795503 52.408221 29.488016 172.933093 -37.691886 -2.028897 2.145223 21.439255 1.287172 0.210800 2.860216 0.319360 0.319491 4.724635 0.515673 1.576743 18.206320 2.230781 -1.327865 15.138625 -0.050334 -2.553295 -7.681872 0.425328 -5.222203 -0.411535 -3.634971 -7.027346 -3.943036 3.647964 -113.419101 -70.792784 142.121277 9.285950 8.055161 25.419749 -5.248170 0.776780 0.011226 15.888418 -6.241250 2.651803 79.236763 -38.741771 -130.153592 5.370956 -2.991691 -20.568263 -3.362576 -43.754588 2.497051 -129.861303 84.970034 -124.688074 1.246946 -9.938191 -2.793664 0.517933 -1.161935 0.222828 -3.068663 -39.702592 5.735448 73.150044 82.493209 62.107330 -6.468300 -12.463958 8.467939 0.657599 1.574413 0.291507
-6.796406 52.404573 29.492437 172.915429 -37.690391 -2.027907 2.157197 21.447301 1.293490 0.202775 2.874432 0.316434 0.330971 4.739958 0.520350 1.582142 18.235039 2.234263 -1.402894 15.079549 -0.047898 -2.649243 -7.776786 0.443994 -5.235958 -0.413663 -3.598337 -6.849978 -4.034939 3.768540 -113.594880 -70.925400 142.179727 8.937484 7.676147 23.926568 -5.245055 0.798195 0.003796 15.829314 -6.301669 2.487942 78.437347 -37.983365 -129.564862 5.934407 -3.485038 -19.872453 -3.363251 -43.757488 2.513594 -129.756453 84.971899 -124.586092 1.247576 -9.936196 -2.792097 0.520511 -1.154920 0.223472 -3.059908 -39.711852 5.733480 73.217946 82.482194 62.184207 -6.444197 -12.462792 8.472438 0.637866 1.568586 0.280657
-6.796372 52.402115 29.496099 172.896420 -37.698728 -2.030650 2.173938 21.465668 1.306108 0.199805 2.892138 0.315927 0.347962 4.758053 0.527501 1.597953 18.255403 2.243331 -1.472848 15.017662 -0.051029 -2.749726 -7.885242 0.458280 -5.253235 -0.408857 -3.564999 -6.686498 -4.108228 3.880698 -114.111377 -71.159071 142.594529 8.512586 7.276012 22.339244 -5.264132 0.775784 -0.002454 15.767688 -6.317044 2.334089 77.714814 -37.286655 -129.017073 6.456903 -3.993515 -19.038521 -3.367049 -43.749268 2.537032 -129.664345 84.975453 -124.497909 1.248417 -9.933095 -2.789635 0.519796 -1.150560 0.223607 -3.055442 -39.705260 5.748761 73.237733 82.479678 62.208393 -6.442136 -12.470861 8.471551 0.640725 1.574632 0.280367
-6.798018 52.399451 29.500285 172.882314 -37.702903 -2.025887 2.203197 21.522498 1.324474 0.193978 2.873491 0.311113 0.356142 4.775658 0.535013 1.616709 18.279207 2.255044 -1.516855 14.941961 -0.060142 -2.837119 -7.966871 0.471462 -5.279655 -0.448757 -3.551612 -6.523256 -4.121303 3.994667 -114.731247 -71.371582 143.078865 8.137929 6.892630 20.755617 -5.291535 0.744575 -0.012381 15.695248 -6.326906 2.181162 77.078188 -36.665253 -128.511657 6.937246 -4.506551 -18.089410 -3.369490 -43.746460 2.548563 -129.566485 84.976096 -124.405889 1.246178 -9.930034 -2.792229 0.525143 -1.147450 0.228815 -3.039483 -39.703604 5.737661 73.226169 82.471218 62.209627 -6.424109 -12.476463 8.468359 0.637299 1.580226 0.277412
-6.799934 52.396651 29.504833 172.866798 -37.704237 -2.017628 2.225165 21.544229 1.335504 0.208200 2.919234 0.321504 0.353420 4.766251 0.533528 1.637145 18.306482 2.268184 -1.577568 14.867654 -0.068640 -2.848291 -8.006029 0.467970 -5.274379 -0.427995 -3.514887 -6.402790 -4.182719 4.080281 -115.424975 -71.598039 143.632176 7.776427 6.500099 19.171247 -5.313068 0.763886 -0.030863 15.594176 -6.385259 2.016724 76.543838 -36.136640 -128.050449 7.382445 -5.015774 -17.039189 -3.372308 -43.748685 2.557796 -129.474066 84.974038 -124.319161 1.241116 -9.923936 -2.793459 0.537589 -1.146814 0.229159 -3.016922 -39.705215 5.724844 73.231938 82.458202 62.225094 -6.412335 -12.478722 8.469997 0.625073 1.583616 0.272692
-6.802657 52.394045 29.508984 172.864648 -37.705715 -2.010686 2.228294 21.553009 1.333332 0.222033 2.956247 0.331004 0.360191 4.785986 0.537793 1.662309 18.337000 2.283049 -1.620810 14.820978 -0.074363 -2.936537 -8.151044 0.468811 -5.260497 -0.406486 -3.477837 -6.297715 -4.236969 4.156348 -116.137291 -71.830098 144.197663 7.428689 6.102100 17.610681 -5.325640 0.872419 -0.056672 15.464077 -6.529881 1.831846 76.125829 -35.697432 -127.623635 7.796394 -5.498772 -15.907914 -3.385787 -43.748793 2.560083 -129.421611 84.974973 -124.277843 1.240954 -9.921738 -2.797966 0.543089 -1.144977 0.232010 -2.999299 -39.705923 5.699940 73.236361 82.434145 62.249472 -6.433524 -12.479059 8.462934 0.638090 1.592100 0.271919
